<?xml version="1.0" encoding="utf-8"?>
<!-- Generator: Adobe Illustrator 16.0.4, SVG Export Plug-In . SVG Version: 6.00 Build 0)  -->
<!DOCTYPE svg PUBLIC "-//W3C//DTD SVG 1.1//EN" "http://www.w3.org/Graphics/SVG/1.1/DTD/svg11.dtd">

<svg version="1.1" id="Layer_1" xmlns="http://www.w3.org/2000/svg" xmlns:xlink="http://www.w3.org/1999/xlink" x="0px" y="0px" width="168px" height="233.771px" viewBox="0 0 168 233.771" style="enable-background:new 0 0 168 233.771;" xml:space="preserve" >

    <style type="text/css">
        <![CDATA[
            .shield__highlight {
                fill: #F18C21;
            }
            .shield__gradient {
                fill: url(#SVGID_1_);
            }
            .shield__details {
                fill: #C52B1C;
            }
            .shield__monogram {
                fill: #FFFFFF;
            }
        ]]>
    </style>

    <g>
        <path class="shield__highlight" d="M163.802,47.086l-14.264,164.04L84,229.453l-65.536-18.328L4.199,47.086H163.802 M165.938,45.795H2.063 L16.576,212.69L84,231.547l67.424-18.856L165.938,45.795z"/>
    </g>

    <g>
        <radialGradient id="SVGID_1_" cx="-68.5" cy="144.3855" r="167.598" gradientTransform="matrix(1 0 0 -1 116 312.771)" gradientUnits="userSpaceOnUse">
            <stop  offset="0" style="stop-color: #F26722"/>
            <stop  offset="1" style="stop-color: #C52B1C"/>
        </radialGradient>

        <polygon class="shield__gradient" points="17.1,212.112 2.637,45.795 165.363,45.795 150.9,212.112 84,230.822     "/>
    </g>

    <g>
        <path class="shield__details" d="M1,13.697l4.021-0.771v-2.02c0-5.384,3.658-9.453,9.496-9.517c2.217-0.018,7.758,0.618,9.814,1.381v3.193 c-0.045,0-8.111-0.339-8.111-0.339c-2.676-0.118-5.953,0.808-5.953,5.438v1.857l15.934,0.451V36.94h-5.277V17.22H10.268v19.72 H5.021V17.22H1V13.697z"/>
        <path class="shield__details" d="M30.582,12.929h4.252l0.994,3.028c2.062-1.599,4.395-3.286,7.645-3.286c1.137,0,2.312,0.062,2.92,0.314v5.089 c-0.607-0.087-2.084-0.176-3.43-0.176c-2.982,0-4.869,0.62-7.135,2.653v16.393h-5.246V12.929z"/>
        <path class="shield__details" d="M58.779,12.748c6.479,0,9.816,0.702,9.816,8.661c0,3.99-2.172,5.835-6.516,5.835h-8.547 c0,4.815,1.42,5.488,4.885,5.488c3.844,0,6.332,0.025,9.727-0.468v3.642c-3.492,1.183-8.189,1.266-11.943,1.266 c-6.105,0-7.914-3.316-7.914-12.347C48.287,14.358,51.236,12.748,58.779,12.748z M61.037,23.149c1.562,0,2.312-0.674,2.312-1.945 c0-3.656-0.605-4.159-4.318-4.159c-3.988,0-5.529,0.144-5.498,6.104H61.037z"/>
        <path class="shield__details" d="M72.145,18.597c0-3.713,1.582-5.896,6.24-5.896c2.352,0,8.992,0.391,11.346,0.615v1.916H78.385 c-3.201,0-3.664,1.238-3.664,3.359v2.08c0,2.969,1.406,3.04,3.664,3.04h6.686c3.77,0,5.883,2.213,5.883,5.604v2.216 c0,4.929-2.986,5.636-5.883,5.636c-2.215,0-10.211-0.541-11.93-0.722v-1.858h11.93c0.723,0,3.303,0.164,3.303-3.056V29.32 c0-1.798-0.896-3.026-3.303-3.026h-6.688c-4.252,0-6.24-0.959-6.24-5.617L72.145,18.597L72.145,18.597z"/>
        <path class="shield__details" d="M95.996,1.485h2.578v14.248c2.713-1.63,5.508-3.212,9.174-3.212c4.795,0,7.418,3.709,7.418,7.688v16.736 h-2.578V20.21c0-3.263-1.92-5.107-4.84-5.107c-3.742,0-5.736,0.92-9.174,2.64v19.207h-2.578V1.485z"/>
        <path class="shield__details" d="M129.773,12.748c5.594,0,9.166,0.544,9.166,8.503c0,3.518-1.99,5.135-6.184,5.135h-10.438 c0,6.84,1.656,8.208,5.322,8.208c4.158,0,7.455-0.104,10.848-0.604v1.918c-3.664,1.041-7.092,1.282-10.848,1.266 c-6.121-0.026-7.9-3.124-7.9-12.347C119.74,14.149,122.604,12.748,129.773,12.748z M132.76,23.853c2.176,0,3.604-0.541,3.604-2.604 c0-5.438-1.52-5.926-6.559-5.926c-5.514,0-7.484,0.491-7.484,8.526h10.439V23.853z"/>
        <path class="shield__details" d="M143.984,1.528h2.58v26.87c0,5.011,1.639,5.669,3.117,5.971c0,0,3.479,0.797,3.795,0.797v1.782h-3.658 c-3.59,0-5.834-2.312-5.834-8.549V1.528z"/>
        <path class="shield__details" d="M157.508,1.528h2.578v26.87c0,5.011,1.643,5.669,3.117,5.971c0,0,3.48,0.797,3.797,0.797v1.782h-3.66 c-3.592,0-5.832-2.312-5.832-8.549V1.528L157.508,1.528z"/>
    </g>
    
    <g>
        <path class="shield__monogram" d="M49.646,196.398c-7.521-11.383,2.818-23.95,6.389-29.709c2.627-4.238,12.764-21.443-5.236-41.414 c1.801,5.411,1.309,11.63,0,15.395c-1.639,4.908-3.252,7.962-6.221,13.091c-2.951,5.106-7.529,10.639-9,16.361 c-2.455,9.819-0.883,21.49,9.818,27.168c-5.867-0.98-30.93-14.729-18.9-42.012c4.529-10.271,10.443-17.694,6.986-26.063 c6.086,3.782,5.82,9.491,5.82,14.401c2.742-2.512,4.074-6.352,3.879-10.279c-0.199-4.713-1.551-9.247-2.428-13.691 c-1.188-6.011-2.018-9.261-2.408-14.562c-0.393-5.104,0.438-10.409,2.01-15.316c1.375-3.732,3.34-7.324,6.9-10.939 c-3.521,6.097-3.232,9.812-2.445,15.896c0.588,4.714,3.162,10.557,6.246,15.866c3.002,5.164,6.338,10.4,9.676,15.507 c3.342,5.5,6.482,11.588,6.875,18.067c0.391,9.032-2.453,16.471-6.674,24.938v0.193c1.4-3.761,7.908-9.896,15.117-6.089 c-5.406,0.979-8.227,6.249-9.229,11.979C64.379,189.109,54.441,195.576,49.646,196.398z"/>
    </g>
    
    <polygon class="shield__highlight" points="84,218.228 140.334,202.385 151.799,58.446 84,58.446 "/>

    <polygon class="shield__monogram" points="142.773,78.826 91.348,78.825 91.348,88.977 131.562,88.672 128.809,129.817 91.348,141.998 91.348,196.04 134.434,185.533 135.232,175.196 101.201,183.175 101.939,150.353 138.123,137.772 "/>

    <g>
        <path class="shield__details" d="M163.182,47.795L149.029,210.56L84,228.745l-65.027-18.186L4.819,47.795H163.182 M165.363,45.795H2.637 L17.1,212.112l66.9,18.71l66.9-18.71L165.363,45.795L165.363,45.795z" />
    </g>

</svg>
